<svg width="15" height="16" viewBox="0 0 15 16" fill="none" xmlns="http://www.w3.org/2000/svg">
<path d="M7.40234 0.439453C8.63932 0.439453 9.847 0.758464 11.0254 1.39648C12.2038 2.02799 13.1217 2.9362 13.7793 4.12109C14.4368 5.29948 14.7656 6.52995 14.7656 7.8125C14.7656 9.08203 14.4401 10.3027 13.7891 11.4746C13.1445 12.6465 12.2363 13.5579 11.0645 14.209C9.89909 14.8535 8.67839 15.1758 7.40234 15.1758C6.1263 15.1758 4.90234 14.8535 3.73047 14.209C2.5651 13.5579 1.6569 12.6465 1.00586 11.4746C0.354818 10.3027 0.0292969 9.08203 0.0292969 7.8125C0.0292969 6.52995 0.358073 5.29948 1.01562 4.12109C1.67969 2.9362 2.60091 2.02799 3.7793 1.39648C4.95768 0.758464 6.16536 0.439453 7.40234 0.439453ZM7.40234 1.66016C6.36719 1.66016 5.35807 1.92708 4.375 2.46094C3.39844 2.98828 2.63346 3.74674 2.08008 4.73633C1.52669 5.7194 1.25 6.74479 1.25 7.8125C1.25 8.8737 1.52018 9.89258 2.06055 10.8691C2.60742 11.8392 3.36914 12.5977 4.3457 13.1445C5.32227 13.6849 6.34115 13.9551 7.40234 13.9551C8.46354 13.9551 9.48242 13.6849 10.459 13.1445C11.4355 12.5977 12.194 11.8392 12.7344 10.8691C13.2747 9.89258 13.5449 8.8737 13.5449 7.8125C13.5449 6.74479 13.2682 5.7194 12.7148 4.73633C12.168 3.74674 11.403 2.98828 10.4199 2.46094C9.43685 1.92708 8.43099 1.66016 7.40234 1.66016ZM9.76562 9.00391L10.9668 9.35547C10.7715 10.1693 10.3548 10.8203 9.7168 11.3086C9.08529 11.7904 8.31706 12.0312 7.41211 12.0312C6.26628 12.0312 5.33529 11.6602 4.61914 10.918C3.90299 10.1758 3.54492 9.14714 3.54492 7.83203C3.54492 6.97266 3.70768 6.22721 4.0332 5.5957C4.35872 4.95768 4.82096 4.47917 5.41992 4.16016C6.02539 3.83464 6.71549 3.67188 7.49023 3.67188C8.35612 3.67188 9.07552 3.88021 9.64844 4.29688C10.2214 4.70703 10.612 5.26693 10.8203 5.97656L9.6582 6.25977C9.46289 5.77799 9.17318 5.41016 8.78906 5.15625C8.41146 4.89583 7.96549 4.76562 7.45117 4.76562C6.70247 4.76562 6.08398 5.03255 5.5957 5.56641C5.11393 6.10026 4.87305 6.86523 4.87305 7.86133C4.87305 8.85742 5.10091 9.61263 5.55664 10.127C6.01888 10.6348 6.61458 10.8887 7.34375 10.8887C7.92969 10.8887 8.44401 10.7194 8.88672 10.3809C9.32943 10.0423 9.6224 9.58333 9.76562 9.00391Z" fill="#F1F1F1"/>
</svg>
