<svg width="136" height="136" viewBox="0 0 136 136" fill="none" xmlns="http://www.w3.org/2000/svg">
<circle cx="67.8923" cy="67.8928" r="49.2824" fill="#F1F1F1" stroke="#192632" stroke-width="0.5"/>
<path d="M56.624 57.8621H77.6753V78.9133" stroke="#192632" stroke-width="5"/>
<path d="M56.624 78.9133L77.6753 57.8621" stroke="#192632" stroke-width="5"/>
<path d="M74.2738 1.14905L73.9624 7.87603L73.0904 7.81374L73.4018 1.8342L70.2874 1.70963L69.976 7.68916L69.104 7.62688L69.4777 0.899902L74.2738 1.14905Z" fill="#192632"/>
<path d="M76.1423 5.82062C76.0177 7.00407 76.7029 7.56465 77.5749 7.68923C78.1978 7.75151 78.5715 7.75151 78.9452 7.62694L79.0075 8.24981C78.696 8.37438 78.1355 8.43667 77.388 8.3121C75.8932 8.12523 75.208 7.00407 75.3949 5.57148C75.5817 4.13888 76.5783 3.14229 78.0109 3.32915C79.5681 3.5783 79.8172 4.94861 79.6926 5.88291C79.6926 6.06977 79.6303 6.19434 79.6303 6.25663L76.1423 5.82062ZM78.7583 5.57148C78.8206 5.01089 78.7583 4.13888 77.7617 4.01431C76.8897 3.88973 76.3914 4.63717 76.2046 5.26004L78.7583 5.57148Z" fill="#192632"/>
<path d="M80.8761 5.57157C81.0007 4.94871 81.1253 4.45041 81.1875 4.0144L81.935 4.20126L81.8104 5.01099C82.3087 4.5127 82.9316 4.32584 83.679 4.5127C84.8002 4.76185 85.4231 5.9453 85.1116 7.37789C84.7379 9.05964 83.4922 9.6825 82.371 9.43336C81.7481 9.30878 81.2498 8.87278 81.063 8.37448L80.5024 10.9282L79.6304 10.7414L80.8761 5.57157ZM81.4367 7.00417C81.4367 7.12874 81.3744 7.25332 81.3744 7.37789C81.3744 8.00076 81.8104 8.56134 82.4333 8.68591C83.3676 8.87278 84.0527 8.24991 84.3019 7.19103C84.4887 6.25673 84.2396 5.32243 83.3053 5.13557C82.7447 5.01099 82.0596 5.32243 81.7481 5.88301C81.6859 6.00758 81.6236 6.13216 81.6236 6.19444L81.4367 7.00417Z" fill="#192632"/>
<path d="M86.6691 8.0631C86.2954 9.18426 86.9182 9.86942 87.728 10.1809C88.3508 10.3677 88.7246 10.3677 89.0983 10.3677L89.036 10.9906C88.7246 11.0529 88.164 10.9906 87.4165 10.8037C85.9839 10.3677 85.4856 9.12198 85.9216 7.75167C86.3577 6.38136 87.5411 5.50934 88.8491 5.94535C90.344 6.44364 90.344 7.87624 90.0326 8.74826C89.9703 8.93512 89.908 9.05969 89.908 9.12198L86.6691 8.0631ZM89.2851 8.24996C89.472 7.75167 89.5343 6.81737 88.5377 6.50593C87.6657 6.25678 87.0428 6.87965 86.7937 7.44023L89.2851 8.24996Z" fill="#192632"/>
<path d="M92.7108 7.43989L91.901 9.3085C91.5896 9.99365 91.4028 10.4297 91.0913 11.0525C91.5896 10.6165 91.901 10.3674 92.3993 9.99365L94.7662 8.24962L95.7005 8.62334L93.8319 13.0457L93.0845 12.7343L93.8942 10.8657C94.2057 10.1182 94.3925 9.74451 94.7039 9.05935C94.2057 9.49536 93.8319 9.80679 93.3959 10.1182C92.7108 10.6165 91.8388 11.3017 91.029 11.8623L90.0947 11.4885L91.9633 7.06617L92.7108 7.43989ZM94.0188 5.82044C93.8942 6.25644 93.9565 6.63016 94.3302 6.75474C94.7039 6.9416 95.0154 6.69245 95.2645 6.31873L95.8251 6.56788C95.4514 7.31532 94.8285 7.50218 94.1434 7.19075C93.3336 6.87931 93.2091 6.19416 93.4582 5.57129L94.0188 5.82044Z" fill="#192632"/>
<path d="M100.123 10.9281L99.8113 11.551L98.5033 10.8658L96.6347 14.5407L95.8872 14.167L97.7558 10.4921L96.4478 9.80695L96.7592 9.18408L100.123 10.9281Z" fill="#192632"/>
<path d="M101.681 11.8L100.622 13.544C100.248 14.2292 99.937 14.6029 99.5633 15.1635C100.124 14.7898 100.435 14.6029 100.996 14.2915L103.612 12.9834L104.484 13.544L101.992 17.655L101.307 17.2189L102.366 15.4749C102.802 14.7898 102.989 14.4783 103.425 13.7932C102.864 14.1669 102.428 14.3537 101.992 14.6652C101.183 15.0389 100.248 15.5995 99.3764 16.0355L98.5044 15.5372L100.996 11.4263L101.681 11.8Z" fill="#192632"/>
<path d="M108.345 16.3469L107.037 17.9664L107.224 18.091L109.964 17.5927L110.774 18.2778L107.784 18.7138C108.345 19.2744 108.407 19.9596 108.158 20.8939C108.033 21.2053 107.909 21.7036 107.847 22.1396L107.099 21.579C107.099 21.3299 107.224 20.9562 107.348 20.5201C107.597 19.7104 107.411 19.1498 106.788 18.6515L106.663 18.527L105.355 20.2087L104.67 19.6481L107.66 15.8486L108.345 16.3469Z" fill="#192632"/>
<path d="M115.57 22.7003L115.072 23.1986L114.013 22.1398L111.148 25.1295L110.525 24.5067L113.39 21.5169L112.331 20.458L112.83 19.9597L115.57 22.7003Z" fill="#192632"/>
<path d="M117.314 28.1819C116.006 29.3654 114.573 28.9916 113.826 28.1196C112.954 27.123 113.016 25.7527 114.137 24.7561C115.321 23.6973 116.753 23.8218 117.625 24.8184C118.497 25.815 118.373 27.1853 117.314 28.1819ZM114.698 25.379C113.888 26.0642 113.701 27.0607 114.262 27.6836C114.822 28.3065 115.819 28.2442 116.629 27.559C117.252 26.9985 117.75 26.0019 117.065 25.2544C116.38 24.4447 115.383 24.7561 114.698 25.379Z" fill="#192632"/>
<path d="M119.868 27.6833C120.117 27.9325 120.553 28.3685 120.864 28.8668C121.363 29.4897 122.048 30.6731 121.176 31.296C120.677 31.6697 120.117 31.4828 119.681 31.1714C120.054 31.7943 119.992 32.4794 119.432 32.8532C118.435 33.6006 117.314 32.4171 116.753 31.6697C116.442 31.2337 116.13 30.7977 116.006 30.5485L119.868 27.6833ZM117.002 30.86C117.127 31.0468 117.252 31.2337 117.376 31.4206C117.75 31.9189 118.373 32.4794 118.933 32.1057C119.494 31.6697 119.182 31.0468 118.684 30.3617L118.31 29.8634L117.002 30.86ZM118.809 29.552L119.182 30.0502C119.556 30.5485 120.117 30.9846 120.553 30.6731C120.927 30.3617 120.864 29.9257 120.366 29.2405C120.179 28.9914 120.054 28.8668 119.93 28.7422L118.809 29.552Z" fill="#192632"/>
<path d="M120.365 36.7772L120.864 36.4035C120.428 36.4035 119.867 36.1544 119.493 35.5315C118.995 34.7218 119.306 33.912 119.867 33.5383C120.864 32.9154 121.923 33.476 122.919 35.0332L122.981 34.9709C123.293 34.784 123.853 34.2858 123.355 33.476C123.106 33.1023 122.732 32.7909 122.359 32.604L122.732 32.1057C123.168 32.2926 123.604 32.7286 123.916 33.2269C124.725 34.4726 124.04 35.3446 123.231 35.8429L121.736 36.8395C121.362 37.0887 121.05 37.2755 120.801 37.5247L120.365 36.7772ZM122.359 35.3446C121.86 34.5349 121.113 33.7252 120.365 34.2235C119.867 34.5349 119.867 34.9709 120.116 35.3446C120.428 35.9052 120.988 35.9675 121.424 35.9052C121.487 35.9052 121.611 35.8429 121.673 35.7806L122.359 35.3446Z" fill="#192632"/>
<path d="M124.29 36.9642C124.85 36.6528 125.286 36.4037 125.66 36.2168L126.034 36.902L125.348 37.338C126.034 37.4002 126.594 37.7117 126.968 38.3968C127.529 39.4557 127.03 40.6392 125.722 41.3243C124.165 42.134 122.919 41.5735 122.421 40.5769C122.11 40.0163 122.11 39.3934 122.421 38.8951L120.116 40.1409L119.743 39.3934L124.29 36.9642ZM123.542 38.3345C123.418 38.3968 123.355 38.4591 123.231 38.5214C122.795 38.9574 122.67 39.5803 122.919 40.1409C123.355 40.9506 124.29 41.0752 125.224 40.5769C126.096 40.1409 126.594 39.2688 126.158 38.4591C125.909 37.8985 125.224 37.6494 124.601 37.774C124.476 37.774 124.352 37.8363 124.227 37.8985L123.542 38.3345Z" fill="#192632"/>
<path d="M128.401 41.6977L126.159 43.7531C125.91 44.0023 125.598 44.2514 125.349 44.4383C125.661 44.4383 126.034 44.376 126.408 44.3137L129.398 44.0646L129.772 44.9366L126.159 45.1234C124.415 45.1857 123.418 45.1234 122.733 44.7497C122.235 44.5006 121.923 44.1891 121.799 44.0023L122.422 43.504C122.546 43.6908 122.795 43.8777 123.107 44.0646C123.356 44.1891 123.792 44.376 124.29 44.376C124.415 44.376 124.477 44.376 124.539 44.376C124.602 44.376 124.664 44.3137 124.726 44.2514L128.152 40.8879L128.401 41.6977Z" fill="#192632"/>
<path d="M135.751 74.2741L129.024 73.9626L129.086 73.0906L135.066 73.402L135.19 70.2877L129.211 69.9763L129.273 69.1042L136 69.4157L135.751 74.2741Z" fill="#192632"/>
<path d="M131.08 76.0803C129.896 75.9557 129.336 76.6409 129.211 77.5129C129.149 78.1357 129.149 78.5095 129.274 78.8832L128.651 78.9455C128.526 78.634 128.464 78.0735 128.588 77.326C128.775 75.8311 129.896 75.146 131.329 75.3328C132.762 75.5197 133.758 76.5163 133.571 77.9489C133.322 79.5061 131.952 79.7552 131.018 79.6306C130.831 79.6306 130.706 79.5683 130.644 79.5683L131.08 76.0803ZM131.329 78.6963C131.89 78.7586 132.762 78.6963 132.886 77.6997C133.011 76.8277 132.263 76.3294 131.64 76.1426L131.329 78.6963Z" fill="#192632"/>
<path d="M131.329 80.8141C131.952 80.9387 132.45 81.0632 132.886 81.1255L132.699 81.873L131.889 81.7484C132.388 82.2467 132.575 82.8696 132.388 83.617C132.139 84.7382 130.955 85.361 129.523 85.0496C127.841 84.6759 127.218 83.4301 127.467 82.309C127.592 81.6861 128.028 81.1878 128.526 81.001L125.972 80.4404L126.159 79.5684L131.329 80.8141ZM129.896 81.3747C129.772 81.3747 129.647 81.3124 129.523 81.3124C128.9 81.3124 128.339 81.7484 128.214 82.3713C128.028 83.3056 128.651 83.9907 129.709 84.2399C130.644 84.4267 131.578 84.1153 131.765 83.2433C131.889 82.6827 131.578 81.9975 131.017 81.6861C130.893 81.6238 130.768 81.5615 130.706 81.5615L129.896 81.3747Z" fill="#192632"/>
<path d="M128.9 86.6066C127.779 86.2329 127.094 86.8557 126.782 87.6655C126.595 88.2883 126.595 88.6621 126.595 89.0358L125.973 88.9735C125.91 88.6621 125.973 88.1015 126.159 87.354C126.595 85.9214 127.841 85.4231 129.211 85.8591C130.582 86.2952 131.454 87.4786 131.018 88.7866C130.519 90.2815 129.087 90.2815 128.215 89.9701C128.028 89.9078 127.903 89.8455 127.841 89.8455L128.9 86.6066ZM128.651 89.2849C129.149 89.4718 130.083 89.5341 130.395 88.5375C130.644 87.6655 130.021 87.0426 129.461 86.7934L128.651 89.2849Z" fill="#192632"/>
<path d="M129.461 92.7108L127.592 91.901C126.907 91.5896 126.471 91.4028 125.848 91.0913C126.284 91.5896 126.533 91.901 126.907 92.3993L128.651 94.7662L128.277 95.7005L123.855 93.8319L124.166 93.0845L126.035 93.8942C126.782 94.2057 127.156 94.3925 127.841 94.704C127.405 94.2057 127.094 93.8319 126.782 93.3959C126.284 92.7108 125.599 91.8388 125.038 91.029L125.412 90.0947L129.835 91.9633L129.461 92.7108ZM131.08 93.9565C130.644 93.8319 130.271 93.8942 130.146 94.2679C129.959 94.6417 130.208 94.9531 130.582 95.2022L130.333 95.7628C129.585 95.3891 129.399 94.7662 129.71 94.0811C130.021 93.2714 130.707 93.1468 131.329 93.3959L131.08 93.9565Z" fill="#192632"/>
<path d="M125.972 100.06L125.349 99.749L126.034 98.441L122.359 96.5724L122.733 95.825L126.408 97.6936L127.093 96.3855L127.716 96.697L125.972 100.06Z" fill="#192632"/>
<path d="M125.1 101.68L123.356 100.621C122.671 100.247 122.297 99.936 121.737 99.5623C122.11 100.123 122.297 100.434 122.609 100.995L123.917 103.611L123.356 104.483L119.245 101.991L119.681 101.306L121.425 102.365C122.11 102.801 122.422 102.988 123.107 103.424C122.733 102.864 122.546 102.427 122.235 101.991C121.861 101.182 121.301 100.247 120.865 99.3754L121.363 98.5034L125.474 100.995L125.1 101.68Z" fill="#192632"/>
<path d="M120.553 108.345L118.933 107.037L118.809 107.224L119.307 109.965L118.622 110.775L118.186 107.785C117.625 108.345 116.94 108.408 116.006 108.158C115.695 108.034 115.196 107.909 114.76 107.847L115.321 107.1C115.57 107.1 115.944 107.224 116.38 107.349C117.189 107.598 117.75 107.411 118.248 106.788L118.373 106.664L116.691 105.356L117.252 104.67L121.051 107.66L120.553 108.345Z" fill="#192632"/>
<path d="M114.2 115.508L113.701 115.009L114.76 113.95L111.771 111.085L112.393 110.462L115.383 113.328L116.442 112.269L116.94 112.767L114.2 115.508Z" fill="#192632"/>
<path d="M108.718 117.252C107.535 115.944 107.909 114.511 108.781 113.764C109.777 112.892 111.148 112.954 112.144 114.075C113.203 115.259 113.078 116.691 112.082 117.563C111.085 118.498 109.715 118.373 108.718 117.252ZM111.584 114.698C110.898 113.888 109.902 113.702 109.279 114.262C108.656 114.823 108.718 115.819 109.404 116.629C109.964 117.252 110.961 117.75 111.708 117.065C112.456 116.38 112.206 115.383 111.584 114.698Z" fill="#192632"/>
<path d="M109.217 119.806C108.968 120.055 108.532 120.491 108.034 120.802C107.411 121.301 106.227 121.986 105.604 121.114C105.231 120.615 105.418 120.055 105.729 119.619C105.106 119.992 104.421 119.93 104.047 119.37C103.3 118.373 104.483 117.252 105.231 116.691C105.667 116.38 106.103 116.068 106.352 115.944L109.217 119.806ZM106.04 117.003C105.854 117.127 105.667 117.252 105.48 117.376C104.982 117.75 104.421 118.373 104.795 118.934C105.231 119.494 105.854 119.183 106.539 118.684L107.037 118.311L106.04 117.003ZM107.349 118.747L106.85 119.12C106.352 119.494 105.916 120.055 106.227 120.491C106.539 120.865 106.975 120.802 107.66 120.304C107.909 120.117 108.034 119.992 108.158 119.868L107.349 118.747Z" fill="#192632"/>
<path d="M100.185 120.366L100.559 120.865C100.559 120.429 100.808 119.868 101.431 119.494C102.241 118.996 103.051 119.307 103.424 119.868C104.047 120.865 103.487 121.923 101.929 122.92L101.992 122.982C102.179 123.294 102.677 123.854 103.487 123.356C103.86 123.107 104.172 122.733 104.359 122.359L104.857 122.733C104.67 123.169 104.234 123.605 103.736 123.917C102.49 124.726 101.618 124.041 101.12 123.232L100.123 121.737C99.874 121.363 99.6871 121.051 99.438 120.802L100.185 120.366ZM101.618 122.359C102.428 121.861 103.237 121.114 102.739 120.366C102.428 119.868 101.992 119.868 101.618 120.117C101.057 120.429 100.995 120.989 101.057 121.425C101.057 121.487 101.12 121.612 101.182 121.674L101.618 122.359Z" fill="#192632"/>
<path d="M99.9986 124.228C100.31 124.788 100.559 125.224 100.746 125.598L100.061 125.972L99.6249 125.287C99.5626 125.972 99.2512 126.532 98.566 126.906C97.5071 127.467 96.3237 126.968 95.6385 125.66C94.8288 124.103 95.3894 122.858 96.386 122.359C96.9466 122.048 97.5694 122.048 98.0677 122.359L96.822 120.055L97.5694 119.681L99.9986 124.228ZM98.6283 123.543C98.566 123.418 98.5037 123.356 98.4414 123.231C98.0054 122.795 97.3826 122.671 96.822 122.92C96.0123 123.356 95.8877 124.29 96.386 125.224C96.822 126.096 97.694 126.595 98.5037 126.159C99.0643 125.91 99.3135 125.224 99.1889 124.602C99.1889 124.477 99.1266 124.352 99.0643 124.228L98.6283 123.543Z" fill="#192632"/>
<path d="M95.2024 128.401L93.1469 126.159C92.8978 125.91 92.6486 125.598 92.4618 125.349C92.4618 125.661 92.5241 126.034 92.5864 126.408L92.8355 129.398L91.9635 129.772L91.8389 126.097C91.7766 124.353 91.8389 123.356 92.2126 122.671C92.4618 122.173 92.7732 121.861 92.9601 121.737L93.4584 122.359C93.2715 122.484 93.0847 122.733 92.8978 123.045C92.7732 123.294 92.5864 123.73 92.5864 124.228C92.5864 124.353 92.5864 124.415 92.5864 124.477C92.5864 124.539 92.6486 124.602 92.7109 124.664L96.0744 128.09L95.2024 128.401Z" fill="#192632"/>
<path d="M62.6265 135.751L62.9379 129.024L63.8099 129.087L63.4985 135.066L66.6128 135.191L66.9243 129.211L67.7963 129.274L67.4848 136.001L62.6265 135.751Z" fill="#192632"/>
<path d="M60.8203 131.018C60.9449 129.834 60.2597 129.274 59.3877 129.149C58.7649 129.087 58.3911 129.087 58.0174 129.211L57.9551 128.588C58.2666 128.464 58.8272 128.402 59.5746 128.526C61.0695 128.713 61.7546 129.834 61.5678 131.267C61.3809 132.699 60.3843 133.696 58.9517 133.509C57.3946 133.26 57.1454 131.827 57.27 130.955C57.27 130.768 57.3323 130.644 57.3323 130.582L60.8203 131.018ZM58.2043 131.329C58.142 131.89 58.2043 132.762 59.2009 132.886C60.0729 133.011 60.5712 132.263 60.758 131.64L58.2043 131.329Z" fill="#192632"/>
<path d="M56.086 131.329C55.9614 131.952 55.8369 132.45 55.7746 132.886L55.0271 132.699L55.1517 131.889C54.6534 132.388 54.0305 132.575 53.2831 132.388C52.1619 132.139 51.5391 130.955 51.8505 129.523C52.2242 127.841 53.47 127.218 54.5911 127.467C55.214 127.592 55.7123 128.028 55.8992 128.526L56.4597 125.972L57.3317 126.159L56.086 131.329ZM55.5254 129.896C55.5254 129.772 55.5877 129.647 55.5877 129.523C55.5877 128.9 55.1517 128.339 54.5288 128.214C53.5945 128.028 52.9094 128.651 52.6602 129.709C52.4734 130.644 52.7225 131.578 53.6568 131.765C54.2174 131.889 54.9026 131.578 55.214 131.017C55.2763 130.893 55.3386 130.768 55.3386 130.706L55.5254 129.896Z" fill="#192632"/>
<path d="M50.2933 128.837C50.667 127.716 50.0441 127.031 49.2344 126.72C48.6115 126.533 48.2378 126.533 47.864 126.533L47.9263 125.91C48.2378 125.848 48.7984 125.91 49.5458 126.097C50.9784 126.533 51.4767 127.778 51.0407 129.149C50.6047 130.519 49.4212 131.391 48.1132 130.955C46.6183 130.457 46.6183 129.024 46.9297 128.152C46.992 127.965 47.0543 127.841 47.0543 127.778L50.2933 128.837ZM47.6772 128.65C47.4903 129.149 47.4281 130.083 48.4246 130.394C49.2967 130.644 49.9195 130.021 50.1687 129.46L47.6772 128.65Z" fill="#192632"/>
<path d="M42.9435 131.017C43.0681 130.581 43.0058 130.208 42.6321 130.083C42.2584 129.896 41.9469 130.145 41.6978 130.519L41.1372 130.27C41.5109 129.523 42.1338 129.336 42.819 129.647C43.6287 129.959 43.7532 130.644 43.5041 131.267L42.9435 131.017ZM44.2515 129.46L45.0613 127.592C45.3727 126.907 45.5596 126.471 45.871 125.848C45.3727 126.284 45.0613 126.533 44.563 126.907L42.1961 128.651L41.2618 128.277L43.1304 123.854L43.8778 124.166L43.0681 126.035C42.7567 126.782 42.5698 127.156 42.2584 127.841C42.7567 127.405 43.1304 127.093 43.5664 126.782C44.2515 126.284 45.1236 125.599 45.9333 125.038L46.8676 125.412L44.999 129.834L44.2515 129.46Z" fill="#192632"/>
<path d="M36.8403 125.972L37.1518 125.349L38.4598 126.034L40.3284 122.359L41.0758 122.733L39.2072 126.408L40.5152 127.093L40.2038 127.716L36.8403 125.972Z" fill="#192632"/>
<path d="M35.2824 125.038L36.3413 123.294C36.715 122.671 37.0264 122.235 37.4001 121.674C36.8396 122.048 36.5281 122.235 35.9676 122.546L33.3515 123.854L32.4795 123.294L34.971 119.183L35.6561 119.619L34.5972 121.363C34.1612 122.048 33.9744 122.359 33.5384 123.045C34.0989 122.671 34.535 122.484 34.971 122.173C35.7807 121.799 36.715 121.238 37.587 120.802L38.459 121.301L35.9676 125.412L35.2824 125.038Z" fill="#192632"/>
<path d="M28.5547 120.554L29.8627 118.934L29.6758 118.81L26.9352 119.308L26.1255 118.623L29.1153 118.187C28.5547 117.626 28.4924 116.941 28.7415 116.007C28.8661 115.695 28.9907 115.197 29.053 114.761L29.8004 115.322C29.8004 115.571 29.6758 115.944 29.5513 116.38C29.3021 117.19 29.489 117.751 30.1118 118.249L30.2364 118.374L31.5444 116.692L32.2296 117.252L29.2398 121.052L28.5547 120.554Z" fill="#192632"/>
<path d="M21.3921 114.2L21.8904 113.701L22.9493 114.76L25.8145 111.771L26.4373 112.393L23.5721 115.383L24.631 116.442L24.1327 116.94L21.3921 114.2Z" fill="#192632"/>
<path d="M19.6481 108.719C20.9561 107.535 22.3887 107.909 23.1361 108.781C24.0081 109.778 23.9459 111.148 22.8247 112.144C21.6413 113.203 20.2086 113.079 19.3366 112.082C18.4023 111.086 18.5269 109.715 19.6481 108.719ZM22.2018 111.522C23.0116 110.836 23.1984 109.84 22.6378 109.217C22.0772 108.594 21.0807 108.656 20.2709 109.342C19.6481 109.902 19.1498 110.899 19.8349 111.646C20.5201 112.456 21.5167 112.144 22.2018 111.522Z" fill="#192632"/>
<path d="M17.0948 109.217C16.8457 108.968 16.4097 108.532 16.0982 108.033C15.5999 107.411 14.9148 106.227 15.7868 105.604C16.2851 105.231 16.8457 105.417 17.2817 105.729C16.908 105.106 16.9703 104.421 17.5308 104.047C18.5274 103.3 19.6486 104.483 20.2092 105.231C20.5206 105.667 20.832 106.103 20.9566 106.352L17.0948 109.217ZM18.1537 107.348L17.78 106.85C17.4063 106.352 16.8457 105.916 16.4097 106.227C16.0359 106.539 16.0982 106.975 16.5965 107.66C16.7834 107.909 16.908 108.033 17.0325 108.158L18.1537 107.348ZM19.96 106.04C19.8354 105.853 19.7109 105.667 19.5863 105.48C19.2126 104.981 18.5897 104.421 18.0291 104.795C17.4685 105.231 17.78 105.853 18.2783 106.539L18.652 107.037L19.96 106.04Z" fill="#192632"/>
<path d="M16.5965 100.123L16.0982 100.497C16.5342 100.497 17.0948 100.746 17.4685 101.369C17.9668 102.179 17.6554 102.988 17.0948 103.362C16.0982 103.985 15.0393 103.424 14.0427 101.867L13.9805 101.929C13.669 102.116 13.1084 102.615 13.6067 103.424C13.8559 103.798 14.2296 104.11 14.6033 104.296L14.2296 104.795C13.7936 104.608 13.3576 104.172 13.0461 103.674C12.2364 102.428 12.9216 101.556 13.7313 101.057L15.2262 100.061C15.5999 99.8117 15.9113 99.6249 16.1605 99.3757L16.5965 100.123ZM14.541 101.556C15.0393 102.365 15.7868 103.175 16.5342 102.677C17.0325 102.365 17.0325 101.929 16.7834 101.556C16.4719 100.995 15.9113 100.933 15.4753 100.995C15.413 100.995 15.2885 101.057 15.2262 101.12L14.541 101.556Z" fill="#192632"/>
<path d="M12.6719 99.9361C12.1113 100.248 11.6753 100.497 11.3016 100.684L10.9279 99.9984L11.613 99.5624C10.9279 99.5001 10.3673 99.1887 9.99355 98.5035C9.43297 97.4446 9.93126 96.2612 11.2393 95.576C12.7965 94.7663 14.0422 95.3269 14.5405 96.3235C14.8519 96.8841 14.8519 97.5069 14.5405 98.0052L16.8451 96.7595L17.2188 97.5069L12.6719 99.9361ZM13.4193 98.5658C13.5439 98.5035 13.6062 98.4412 13.7308 98.3789C14.1668 97.9429 14.2913 97.3201 14.0422 96.7595C13.6062 95.9498 12.6719 95.8252 11.7376 96.3235C10.8656 96.7595 10.3673 97.6315 10.8033 98.4412C11.0524 99.0018 11.7376 99.251 12.3604 99.1264C12.485 99.1264 12.6096 99.0641 12.7342 99.0018L13.4193 98.5658Z" fill="#192632"/>
<path d="M8.49874 95.1402L10.7411 93.0847C10.9902 92.8355 11.3016 92.5864 11.5508 92.3995C11.2394 92.3995 10.8656 92.4618 10.4919 92.5241L7.50214 92.7733L7.12842 91.9012L10.8033 91.7767C12.5474 91.7144 13.544 91.7767 14.2291 92.1504C14.7274 92.3995 15.0388 92.711 15.1634 92.8978L14.5405 93.3961C14.416 93.2093 14.1668 93.0224 13.8554 92.8355C13.6063 92.711 13.1702 92.5241 12.6719 92.5241C12.5474 92.5241 12.4851 92.5241 12.4228 92.5241C12.3605 92.5241 12.2982 92.5864 12.2359 92.6487L8.81017 96.0122L8.49874 95.1402Z" fill="#192632"/>
<path d="M1.14905 62.626L7.87603 62.9374L7.81374 63.8094L1.8342 63.498L1.70964 66.6123L7.68916 66.9238L7.62689 67.7958L0.899902 67.4843L1.14905 62.626Z" fill="#192632"/>
<path d="M5.88264 60.8198C7.06608 60.9444 7.62667 60.2593 7.75124 59.3872C7.81353 58.7644 7.81352 58.3906 7.68895 58.0169L8.31182 57.9546C8.43639 58.2661 8.49868 58.8267 8.37411 59.5741C8.18725 61.069 7.06609 61.7541 5.63349 61.5673C4.2009 61.3804 3.2043 60.3838 3.39116 58.9512C3.64031 57.3941 5.01062 57.1449 5.94493 57.2695C6.13179 57.2695 6.25636 57.3318 6.31865 57.3318L5.88264 60.8198ZM5.63349 58.1415C5.07291 58.0792 4.2009 58.1415 4.07632 59.1381C3.95175 60.0101 4.69919 60.5084 5.32206 60.6953L5.63349 58.1415Z" fill="#192632"/>
<path d="M5.57182 56.0863C4.94895 55.9617 4.45066 55.8371 4.01465 55.7748L4.20152 55.0274L5.01124 55.152C4.51295 54.6537 4.32609 54.0308 4.51295 53.2834C4.7621 52.1622 5.94554 51.5393 7.37813 51.8508C9.05988 52.2245 9.68276 53.4702 9.43361 54.5914C9.30904 55.2142 8.87302 55.7125 8.37473 55.8994L10.9285 56.46L10.7416 57.332L5.57182 56.0863ZM7.00443 55.5257C7.129 55.5257 7.25356 55.588 7.37813 55.588C8.001 55.588 8.56159 55.152 8.68616 54.5291C8.87302 53.5948 8.25016 52.9096 7.19128 52.6605C6.25698 52.4736 5.32268 52.7228 5.13582 53.6571C5.01125 54.2177 5.32267 54.9028 5.88325 55.2142C6.00783 55.2765 6.1324 55.3388 6.19469 55.3388L7.00443 55.5257Z" fill="#192632"/>
<path d="M8.06334 50.2932C9.1845 50.667 9.86966 50.0441 10.1811 49.2344C10.3679 48.6115 10.368 48.2378 10.368 47.8641L10.9908 47.9263C11.0531 48.2378 10.9908 48.7984 10.804 49.5458C10.3679 50.9784 9.12222 51.4767 7.75191 51.0407C6.3816 50.6047 5.50959 49.4212 5.94559 48.1132C6.44389 46.6183 7.87649 46.6183 8.7485 46.9298C8.93536 46.992 9.05994 47.0543 9.12223 47.0543L8.06334 50.2932ZM8.25021 47.6149C7.75192 47.428 6.81761 47.3658 6.50617 48.3623C6.25702 49.2344 6.87989 49.8572 7.44047 50.1064L8.25021 47.6149Z" fill="#192632"/>
<path d="M5.88342 42.9438C6.31943 43.0683 6.69315 43.0061 6.81772 42.6323C7.00458 42.2586 6.75545 41.9472 6.38173 41.698L6.63087 41.1375C7.37831 41.5112 7.56517 42.134 7.25374 42.8192C6.9423 43.6289 6.25715 43.7535 5.63428 43.5044L5.88342 42.9438ZM7.44059 44.1895L9.30919 44.9992C9.99435 45.3107 10.4304 45.4975 11.0532 45.809C10.6172 45.3107 10.3681 44.9992 9.99435 44.5009L8.25033 42.134L8.62404 41.1997L13.0464 43.0683L12.735 43.8158L10.8664 43.0061C10.1189 42.6946 9.74521 42.5078 9.06005 42.1963C9.49606 42.6946 9.8075 43.0683 10.1189 43.5044C10.6172 44.1895 11.3024 45.0615 11.863 45.8712L11.4892 46.8055L7.06687 44.9369L7.44059 44.1895Z" fill="#192632"/>
<path d="M10.9281 36.7771L11.551 37.0885L10.8658 38.3966L14.5407 40.2652L14.167 41.0126L10.4921 39.144L9.80695 40.452L9.18408 40.1406L10.9281 36.7771Z" fill="#192632"/>
<path d="M11.863 35.2197L13.607 36.2785C14.2922 36.6523 14.6659 36.9637 15.2265 37.3374C14.8527 36.7768 14.6659 36.4654 14.3545 35.9048L13.0464 33.2888L13.607 32.4167L17.7179 34.9082L17.2819 35.5934L15.5379 34.5345C14.8527 34.0985 14.5413 33.9116 13.8562 33.4756C14.2299 34.0362 14.4167 34.4722 14.7282 34.9082C15.1019 35.7179 15.6625 36.6523 16.0985 37.5243L15.6002 38.3963L11.4893 35.9048L11.863 35.2197Z" fill="#192632"/>
<path d="M16.3474 28.5554L17.9669 29.8634L18.0914 29.6766L17.5932 26.9359L18.2783 26.1262L18.7143 29.116C19.2749 28.5554 19.9601 28.4931 20.8944 28.7423C21.2058 28.8668 21.7041 28.9914 22.1401 29.0537L21.5795 29.8011C21.3304 29.8011 20.9566 29.6766 20.5206 29.552C19.7109 29.3028 19.1503 29.4897 18.652 30.1126L18.5275 30.2371L20.2092 31.5452L19.6486 32.2303L15.8491 29.2406L16.3474 28.5554Z" fill="#192632"/>
<path d="M22.7631 21.3303L23.2614 21.8286L22.2025 22.8875L25.1923 25.7527L24.5694 26.3756L21.5796 23.5104L20.5207 24.5692L20.0225 24.0709L22.7631 21.3303Z" fill="#192632"/>
<path d="M28.1812 19.6483C29.3646 20.9563 28.9909 22.3889 28.1189 23.1364C27.1223 24.0084 25.752 23.9461 24.7554 22.8249C23.6965 21.6415 23.8211 20.2089 24.8177 19.3369C25.8766 18.4026 27.2469 18.5271 28.1812 19.6483ZM25.3783 22.2021C26.0634 23.0118 27.06 23.1987 27.6829 22.6381C28.3057 22.0775 28.2435 21.0809 27.5583 20.2712C26.9977 19.6483 26.0011 19.15 25.2537 19.8352C24.444 20.5203 24.7554 21.5169 25.3783 22.2021Z" fill="#192632"/>
<path d="M27.7456 17.0318C27.9948 16.7827 28.4308 16.3467 28.9291 16.0352C29.5519 15.5369 30.7354 14.8518 31.3582 15.7238C31.732 16.2221 31.5451 16.7827 31.2337 17.2187C31.8565 16.845 32.5417 16.9073 32.9154 17.4678C33.6628 18.4644 32.4794 19.5856 31.732 20.1462C31.2959 20.4576 30.8599 20.769 30.6108 20.8936L27.7456 17.0318ZM29.5519 18.153L30.0502 17.7793C30.5485 17.4056 30.9845 16.845 30.6731 16.409C30.3617 16.0352 29.9256 16.0975 29.2405 16.5958C28.9913 16.7827 28.8668 16.9073 28.7422 17.0318L29.5519 18.153ZM30.9222 19.897C31.1091 19.7725 31.296 19.6479 31.4828 19.5233C31.9811 19.1496 32.5417 18.5267 32.168 17.9661C31.732 17.4056 31.1091 17.717 30.4239 18.2153L29.9256 18.589L30.9222 19.897Z" fill="#192632"/>
<path d="M36.7775 16.534L36.4037 16.0357C36.4037 16.4717 36.1546 17.0323 35.5317 17.406C34.722 17.9043 33.9123 17.5929 33.5385 17.0323C32.9157 16.0357 33.4763 14.9768 35.0334 13.9802L34.9712 13.918C34.7843 13.6065 34.286 13.0459 33.4763 13.5442C33.1026 13.7934 32.7911 14.1671 32.6042 14.5408L32.106 14.1671C32.2928 13.7311 32.7288 13.2951 33.2271 12.9837C34.4728 12.1739 35.3449 12.8591 35.8432 13.6688L36.8398 15.1637C37.0889 15.5374 37.2758 15.8488 37.5249 16.098L36.7775 16.534ZM35.3449 14.5408C34.5352 15.0391 33.7254 15.7866 34.2237 16.534C34.5351 17.0323 34.9712 17.0323 35.3449 16.7831C35.9055 16.4717 35.9677 15.9111 35.9055 15.4751C35.9055 15.4128 35.8432 15.2883 35.7809 15.226L35.3449 14.5408Z" fill="#192632"/>
<path d="M36.9647 12.6099C36.6533 12.0493 36.4041 11.6133 36.2173 11.2396L36.9024 10.8658L37.3384 11.551C37.4007 10.8658 37.7122 10.3053 38.3973 9.93154C39.4562 9.37096 40.6396 9.86925 41.3248 11.1773C42.1345 12.7344 41.574 13.9802 40.5774 14.4785C40.0168 14.7899 39.3939 14.7899 38.8956 14.4785L40.1413 16.7831L39.3939 17.1568L36.9647 12.6099ZM38.335 13.3573C38.3973 13.4819 38.4596 13.5442 38.5219 13.6687C38.9579 14.1048 39.5808 14.2293 40.1413 13.9802C40.9511 13.5442 41.0757 12.6099 40.5774 11.6756C40.1414 10.8036 39.2693 10.3053 38.4596 10.7413C37.899 10.9904 37.6499 11.6756 37.7745 12.2984C37.7745 12.423 37.8367 12.5476 37.899 12.6722L38.335 13.3573Z" fill="#192632"/>
<path d="M41.7602 8.49897L43.8157 10.7413C44.0648 10.9904 44.314 11.3019 44.5008 11.551C44.5008 11.2396 44.4385 10.8659 44.3762 10.4921L44.1271 7.50238L44.9991 7.12866L45.1237 10.8036C45.186 12.5476 45.1237 13.5442 44.75 14.2294C44.5008 14.7277 44.1894 15.0391 44.0025 15.1637L43.5042 14.5408C43.6911 14.4162 43.878 14.1671 44.0648 13.8556C44.1894 13.6065 44.3762 13.1705 44.3762 12.6722C44.3762 12.5476 44.3762 12.4853 44.3762 12.423C44.3762 12.3608 44.314 12.2985 44.2517 12.2362L40.8882 8.81041L41.7602 8.49897Z" fill="#192632"/>
</svg>
