<svg width="136" height="136" viewBox="0 0 136 136" fill="none" xmlns="http://www.w3.org/2000/svg">
<circle cx="68.1389" cy="68.1387" r="49.3054" fill="#F1F1F1" stroke="#192632" stroke-width="0.5"/>
<path d="M87 68L58.5 83.5885L58.5 52.4115L87 68Z" fill="#192632"/>
<path d="M72.9421 6.67791C72.6304 6.80258 71.9447 6.92726 71.1344 6.92726C69.2642 6.86492 67.8928 5.55584 67.9552 3.37405C68.0798 1.25459 69.5136 -0.116827 71.6331 0.0078471C72.4434 0.0701841 73.0045 0.257195 73.1915 0.381869L72.9421 1.06758C72.6304 0.880565 72.1317 0.755891 71.5707 0.755891C70.0123 0.693554 68.8902 1.62861 68.8279 3.43638C68.7655 5.05715 69.6383 6.17921 71.259 6.24155C71.7577 6.24155 72.3188 6.17921 72.6928 6.05454L72.9421 6.67791Z" fill="#192632"/>
<path d="M74.5628 2.18994L75.6226 2.31462L76.1212 4.87043C76.1836 5.24446 76.3083 5.86783 76.3706 6.24185C76.5576 5.93016 76.9316 5.18212 77.181 4.68342L78.2407 2.68864L79.3004 2.81331L78.9264 7.61326L78.116 7.48859L78.3654 5.18212C78.4277 4.68342 78.4277 4.06005 78.5524 3.43668C78.3654 3.87304 78.1784 4.24706 77.8043 4.93277L76.5576 7.23924L75.9342 7.1769L75.4355 4.68342C75.3732 4.18473 75.2485 3.49902 75.1862 3.00032H75.1239C74.9992 3.56136 74.8745 4.18473 74.8122 4.68342L74.3758 6.92756L73.5654 6.80288L74.5628 2.18994Z" fill="#192632"/>
<path d="M84.7856 6.55318C84.3493 8.29862 82.9779 8.73497 81.8558 8.48563C80.6091 8.17394 79.861 6.98954 80.1727 5.55579C80.5467 3.99736 81.7935 3.31165 83.1025 3.62334C84.474 3.93502 85.1597 5.11943 84.7856 6.55318ZM81.0454 5.7428C80.7961 6.74019 81.1701 7.67524 82.0428 7.86226C82.8532 8.04927 83.6636 7.4259 83.9129 6.36617C84.0999 5.55579 83.9753 4.49606 82.9155 4.24671C81.9805 3.99736 81.2948 4.80774 81.0454 5.7428Z" fill="#192632"/>
<path d="M89.7111 5.68042L89.5241 6.36612L88.0903 5.92976L86.8436 9.857L86.0332 9.60765L87.2799 5.68042L85.8462 5.24406L86.0332 4.55835L89.7111 5.68042Z" fill="#192632"/>
<path d="M90.0228 7.48828C90.2721 6.92724 90.4591 6.42855 90.5838 5.99219L91.3319 6.30387L91.0825 7.11425C91.6435 6.67789 92.2669 6.61556 93.015 6.92724C94.0747 7.3636 94.511 8.61034 93.95 9.98176C93.2643 11.6025 91.9552 11.9765 90.9578 11.5402C90.3968 11.2908 89.9604 10.8545 89.8981 10.2934L88.9007 12.7246L88.0903 12.4129L90.0228 7.48828ZM90.3345 8.98436C90.2721 9.10904 90.2721 9.23371 90.2098 9.35839C90.1474 9.98176 90.4591 10.5428 91.0202 10.7921C91.8929 11.1662 92.6409 10.6675 93.0773 9.60773C93.4513 8.73502 93.2643 7.73762 92.4539 7.42594C91.8929 7.17659 91.2072 7.3636 90.8332 7.92464C90.7708 7.98697 90.7085 8.11165 90.6461 8.23632L90.3345 8.98436Z" fill="#192632"/>
<path d="M95.3832 10.8546C94.8845 11.9143 95.3208 12.7247 96.0689 13.0987C96.6299 13.4104 97.0039 13.4728 97.378 13.4728L97.2533 14.0961C96.9416 14.0961 96.3806 13.9715 95.6949 13.5974C94.3858 12.9117 94.0118 11.665 94.6975 10.3559C95.3832 9.04684 96.6299 8.42347 97.8767 9.10918C99.2481 9.85722 98.9987 11.2286 98.6247 12.039C98.5624 12.226 98.4377 12.2884 98.4377 12.413L95.3832 10.8546ZM97.939 11.478C98.1883 10.9793 98.3754 10.1066 97.5026 9.67021C96.6923 9.23385 96.0065 9.79488 95.6325 10.2936L97.939 11.478Z" fill="#192632"/>
<path d="M103.487 12.5373L103.113 13.1607L101.804 12.3503L99.6226 15.8412L98.8745 15.4048L101.056 11.914L99.7472 11.1036L100.121 10.4802L103.487 12.5373Z" fill="#192632"/>
<path d="M104.983 13.5351L104.048 14.8442C104.235 14.9065 104.484 15.0935 104.734 15.2805C105.606 15.9039 106.354 16.8389 105.606 17.8987C105.295 18.335 104.921 18.4597 104.547 18.522C103.861 18.5844 103.113 18.148 102.49 17.774C102.116 17.4623 101.742 17.213 101.492 16.9636L104.297 13.0364L104.983 13.5351ZM102.552 16.9636C102.677 17.0883 102.801 17.213 103.051 17.4C103.612 17.774 104.422 18.0857 104.858 17.4623C105.357 16.7766 104.734 16.1532 104.235 15.7169C104.048 15.5922 103.861 15.4675 103.674 15.4052L102.552 16.9636Z" fill="#192632"/>
<path d="M110.158 17.5869C110.469 17.7739 110.968 18.1479 111.342 18.522C111.965 19.083 112.838 20.0804 112.152 20.8284C111.778 21.2648 111.155 21.2648 110.656 20.9531C111.093 21.5141 111.217 22.1375 110.781 22.6362C109.908 23.5713 108.661 22.6362 107.913 22.0128C107.539 21.6388 107.103 21.2648 106.916 21.0778L110.158 17.5869ZM107.976 21.2648C108.163 21.4518 108.287 21.5765 108.474 21.7635C108.911 22.1375 109.659 22.6362 110.095 22.1375C110.594 21.6388 110.158 21.0155 109.534 20.4544L109.035 20.0181L107.976 21.2648ZM109.472 19.644L109.971 20.0804C110.469 20.5168 111.093 20.8284 111.467 20.3921C111.778 20.0181 111.654 19.5817 110.968 19.0207C110.781 18.8337 110.594 18.709 110.407 18.5843L109.472 19.644Z" fill="#192632"/>
<path d="M114.646 21.7009L113.15 23.0723C112.589 23.571 112.215 23.9451 111.716 24.3814C112.339 24.1944 112.713 24.0697 113.337 23.9451L116.204 23.3217L116.89 24.0697L113.399 27.3736L112.838 26.7502L114.334 25.3788C114.895 24.8178 115.207 24.5684 115.83 24.0697C115.145 24.2567 114.77 24.3814 114.209 24.5061C113.337 24.6931 112.339 24.9425 111.342 25.1295L110.656 24.3814L114.085 21.1399L114.646 21.7009Z" fill="#192632"/>
<path d="M120.318 28.3711L117.077 30.9269L117.388 31.3009L115.643 32.61L115.207 32.049L116.391 31.0516L114.334 28.4334L113.087 29.3685L112.651 28.8074L114.334 27.436L114.583 27.7477C114.957 27.7477 115.331 27.623 115.643 27.4984C116.204 27.249 116.765 26.9373 117.326 26.501L118.324 25.7529L120.318 28.3711ZM117.638 27.3114C117.139 27.6854 116.578 27.9971 116.079 28.2464C115.768 28.3711 115.456 28.4334 115.144 28.4958L116.516 30.2412L119.259 28.0594L118.261 26.8127L117.638 27.3114Z" fill="#192632"/>
<path d="M119.446 31.6126C118.448 32.2983 118.448 33.171 118.947 33.919C119.321 34.4177 119.57 34.6671 119.882 34.9164L119.446 35.4151C119.134 35.2281 118.76 34.8541 118.324 34.2307C117.513 32.984 117.825 31.7372 119.009 30.9269C120.194 30.1165 121.627 30.1788 122.438 31.3632C123.31 32.6723 122.375 33.7944 121.627 34.2931C121.503 34.4177 121.378 34.4801 121.253 34.4801L119.446 31.6126ZM121.44 33.4203C121.939 33.1087 122.5 32.423 121.939 31.6126C121.44 30.8645 120.568 30.9892 120.007 31.3009L121.44 33.4203Z" fill="#192632"/>
<path d="M124.245 39.1556C122.687 40.0283 121.378 39.2802 120.817 38.2828C120.193 37.1608 120.567 35.7894 121.876 35.0413C123.31 34.2933 124.619 34.7296 125.305 35.914C125.928 37.1608 125.554 38.4699 124.245 39.1556ZM122.313 35.8517C121.378 36.3504 121.004 37.2854 121.378 38.0335C121.752 38.7815 122.749 38.9685 123.746 38.4075C124.432 38.0335 125.18 37.1608 124.681 36.2257C124.183 35.2907 123.123 35.4153 122.313 35.8517Z" fill="#192632"/>
<path d="M128.485 72.9421C128.36 72.6304 128.235 71.9447 128.235 71.1344C128.298 69.2642 129.607 67.8928 131.789 67.9552C133.908 68.0798 135.279 69.5136 135.155 71.6331C135.092 72.4434 134.905 73.0045 134.781 73.1915L134.095 72.9421C134.282 72.6304 134.407 72.1317 134.407 71.5707C134.469 70.0123 133.534 68.8902 131.726 68.8279C130.105 68.7655 128.983 69.6383 128.921 71.259C128.921 71.7577 128.983 72.3188 129.108 72.6928L128.485 72.9421Z" fill="#192632"/>
<path d="M132.911 74.5628L132.786 75.6226L130.23 76.1212C129.856 76.1836 129.233 76.3083 128.859 76.3706C129.17 76.5576 129.918 76.9316 130.417 77.181L132.412 78.2407L132.287 79.3004L127.487 78.9264L127.612 78.116L129.918 78.3654C130.417 78.4277 131.041 78.4277 131.664 78.5524C131.228 78.3654 130.854 78.1784 130.168 77.8043L127.861 76.5576L127.924 75.9342L130.417 75.4355C130.916 75.3732 131.602 75.2485 132.1 75.1862V75.1239C131.539 74.9992 130.916 74.8745 130.417 74.8122L128.173 74.3758L128.298 73.5654L132.911 74.5628Z" fill="#192632"/>
<path d="M128.547 84.7864C126.801 84.35 126.365 82.9786 126.614 81.8565C126.926 80.6098 128.111 79.8617 129.544 80.1734C131.103 80.5475 131.788 81.7942 131.477 83.1033C131.165 84.4747 129.981 85.0981 128.547 84.7864ZM129.42 81.0462C128.422 80.7968 127.487 81.1708 127.3 82.0435C127.113 82.8539 127.737 83.6643 128.796 83.9137C129.607 84.1007 130.666 83.976 130.916 82.9163C131.103 81.9189 130.292 81.2332 129.42 81.0462Z" fill="#192632"/>
<path d="M129.482 89.6486L128.797 89.4616L129.233 88.0278L125.306 86.7811L125.555 85.9707L129.482 87.2174L129.919 85.7837L130.604 85.9707L129.482 89.6486Z" fill="#192632"/>
<path d="M127.674 90.0223C128.235 90.2716 128.734 90.4587 129.17 90.5833L128.859 91.3314L128.048 91.082C128.485 91.6431 128.547 92.2664 128.235 93.0145C127.799 94.0742 126.552 94.5106 125.181 93.9495C123.56 93.2638 123.186 91.9547 123.622 90.9574C123.872 90.3963 124.308 89.96 124.869 89.8976L122.438 88.9002L122.75 88.0898L127.674 90.0223ZM126.116 90.334C125.991 90.2716 125.867 90.2716 125.742 90.2093C125.118 90.147 124.557 90.4587 124.308 91.0197C123.934 91.8924 124.433 92.6404 125.493 93.0768C126.365 93.4508 127.363 93.2638 127.674 92.4534C127.924 91.8924 127.737 91.2067 127.176 90.8327C127.113 90.7703 126.989 90.708 126.864 90.6457L126.116 90.334Z" fill="#192632"/>
<path d="M124.246 95.3209C123.186 94.8222 122.376 95.2586 122.002 96.0066C121.69 96.5677 121.628 96.9417 121.628 97.3157L121.004 97.191C121.004 96.8793 121.129 96.3183 121.503 95.6326C122.189 94.3235 123.436 93.9495 124.745 94.6352C126.054 95.3209 126.677 96.5677 125.991 97.8144C125.243 99.1858 123.872 98.9365 123.062 98.5624C122.874 98.5001 122.812 98.3754 122.687 98.3754L124.246 95.3209ZM123.623 97.8767C124.121 98.1261 124.994 98.3131 125.43 97.4404C125.867 96.63 125.306 95.9443 124.807 95.5703L123.623 97.8767Z" fill="#192632"/>
<path d="M122.625 103.425L122.001 103.051L122.812 101.742L119.321 99.5598L119.757 98.8118L123.248 100.994L124.058 99.6845L124.682 100.059L122.625 103.425Z" fill="#192632"/>
<path d="M121.565 104.921L120.256 103.986C120.194 104.173 120.007 104.422 119.82 104.672C119.196 105.544 118.261 106.292 117.202 105.544C116.765 105.233 116.641 104.859 116.578 104.485C116.516 103.799 116.952 103.051 117.326 102.428C117.638 102.054 117.887 101.68 118.137 101.43L122.064 104.235L121.565 104.921ZM118.137 102.49C118.012 102.615 117.887 102.739 117.7 102.989C117.326 103.55 117.015 104.36 117.638 104.796C118.324 105.295 118.947 104.672 119.383 104.173C119.508 103.986 119.633 103.799 119.695 103.612L118.137 102.49Z" fill="#192632"/>
<path d="M117.513 110.157C117.326 110.469 116.952 110.968 116.578 111.342C116.017 111.965 115.02 112.838 114.272 112.152C113.835 111.778 113.835 111.155 114.147 110.656C113.586 111.092 112.963 111.217 112.464 110.781C111.529 109.908 112.464 108.661 113.087 107.913C113.461 107.539 113.835 107.103 114.022 106.916L117.513 110.157ZM113.835 107.913C113.648 108.1 113.524 108.225 113.337 108.412C112.963 108.848 112.464 109.596 112.963 110.033C113.461 110.531 114.085 110.095 114.646 109.472L115.082 108.973L113.835 107.913ZM115.518 109.409L115.082 109.908C114.646 110.407 114.334 111.03 114.77 111.404C115.144 111.716 115.581 111.591 116.142 110.905C116.329 110.718 116.454 110.531 116.578 110.344L115.518 109.409Z" fill="#192632"/>
<path d="M113.399 114.583L112.028 113.087C111.529 112.526 111.155 112.152 110.719 111.653C110.906 112.277 111.03 112.651 111.155 113.274L111.778 116.142L111.03 116.827L107.727 113.337L108.35 112.776L109.721 114.272C110.282 114.833 110.532 115.144 111.03 115.768C110.843 115.082 110.719 114.708 110.594 114.147C110.407 113.274 110.158 112.277 109.971 111.279L110.719 110.594L114.023 114.085L113.399 114.583Z" fill="#192632"/>
<path d="M106.792 120.256L104.236 117.014L103.862 117.326L102.553 115.581L103.114 115.144L104.111 116.329L106.729 114.271L105.794 113.025L106.355 112.588L107.727 114.271L107.415 114.521C107.415 114.895 107.54 115.269 107.664 115.581C107.914 116.142 108.225 116.703 108.662 117.264L109.41 118.261L106.792 120.256ZM107.789 117.638C107.415 117.139 107.103 116.578 106.854 116.079C106.729 115.768 106.667 115.456 106.605 115.144L104.859 116.516L107.041 119.258L108.288 118.261L107.789 117.638Z" fill="#192632"/>
<path d="M103.488 119.446C102.802 118.448 101.929 118.448 101.181 118.947C100.682 119.321 100.433 119.57 100.184 119.882L99.6851 119.446C99.8721 119.134 100.246 118.76 100.869 118.324C102.116 117.513 103.363 117.825 104.173 119.009C104.984 120.194 104.921 121.627 103.737 122.438C102.428 123.311 101.306 122.375 100.807 121.627C100.682 121.503 100.62 121.378 100.62 121.253L103.488 119.446ZM101.68 121.378C101.992 121.877 102.677 122.438 103.488 121.877C104.236 121.378 104.111 120.505 103.799 119.944L101.68 121.378Z" fill="#192632"/>
<path d="M95.9448 124.183C95.0721 122.625 95.8201 121.316 96.8175 120.755C97.9396 120.131 99.311 120.505 100.059 121.814C100.807 123.248 100.371 124.557 99.1863 125.243C97.9396 125.929 96.6305 125.492 95.9448 124.183ZM99.2487 122.313C98.75 121.378 97.8149 121.004 97.0669 121.378C96.3188 121.752 96.1318 122.749 96.6928 123.747C97.0669 124.432 97.9396 125.181 98.8746 124.682C99.7474 124.183 99.685 123.123 99.2487 122.313Z" fill="#192632"/>
<path d="M128.485 72.9421C128.36 72.6304 128.235 71.9447 128.235 71.1344C128.298 69.2642 129.607 67.8928 131.789 67.9552C133.908 68.0798 135.279 69.5136 135.155 71.6331C135.092 72.4434 134.905 73.0045 134.781 73.1915L134.095 72.9421C134.282 72.6304 134.407 72.1317 134.407 71.5707C134.469 70.0123 133.534 68.8902 131.726 68.8279C130.105 68.7655 128.983 69.6383 128.921 71.259C128.921 71.7577 128.983 72.3188 129.108 72.6928L128.485 72.9421Z" fill="#192632"/>
<path d="M132.911 74.5628L132.786 75.6226L130.23 76.1212C129.856 76.1836 129.233 76.3083 128.859 76.3706C129.17 76.5576 129.918 76.9316 130.417 77.181L132.412 78.2407L132.287 79.3004L127.487 78.9264L127.612 78.116L129.918 78.3654C130.417 78.4277 131.041 78.4277 131.664 78.5524C131.228 78.3654 130.854 78.1784 130.168 77.8043L127.861 76.5576L127.924 75.9342L130.417 75.4355C130.916 75.3732 131.602 75.2485 132.1 75.1862V75.1239C131.539 74.9992 130.916 74.8745 130.417 74.8122L128.173 74.3758L128.298 73.5654L132.911 74.5628Z" fill="#192632"/>
<path d="M128.547 84.7864C126.801 84.35 126.365 82.9786 126.614 81.8565C126.926 80.6098 128.111 79.8617 129.544 80.1734C131.103 80.5475 131.788 81.7942 131.477 83.1033C131.165 84.4747 129.981 85.0981 128.547 84.7864ZM129.42 81.0462C128.422 80.7968 127.487 81.1708 127.3 82.0435C127.113 82.8539 127.737 83.6643 128.796 83.9137C129.607 84.1007 130.666 83.976 130.916 82.9163C131.103 81.9189 130.292 81.2332 129.42 81.0462Z" fill="#192632"/>
<path d="M129.482 89.6486L128.797 89.4616L129.233 88.0278L125.306 86.7811L125.555 85.9707L129.482 87.2174L129.919 85.7837L130.604 85.9707L129.482 89.6486Z" fill="#192632"/>
<path d="M127.674 90.0223C128.235 90.2716 128.734 90.4587 129.17 90.5833L128.859 91.3314L128.048 91.082C128.485 91.6431 128.547 92.2664 128.235 93.0145C127.799 94.0742 126.552 94.5106 125.181 93.9495C123.56 93.2638 123.186 91.9547 123.622 90.9574C123.872 90.3963 124.308 89.96 124.869 89.8976L122.438 88.9002L122.75 88.0898L127.674 90.0223ZM126.116 90.334C125.991 90.2716 125.867 90.2716 125.742 90.2093C125.118 90.147 124.557 90.4587 124.308 91.0197C123.934 91.8924 124.433 92.6404 125.493 93.0768C126.365 93.4508 127.363 93.2638 127.674 92.4534C127.924 91.8924 127.737 91.2067 127.176 90.8327C127.113 90.7703 126.989 90.708 126.864 90.6457L126.116 90.334Z" fill="#192632"/>
<path d="M124.246 95.3209C123.186 94.8222 122.376 95.2586 122.002 96.0066C121.69 96.5677 121.628 96.9417 121.628 97.3157L121.004 97.191C121.004 96.8793 121.129 96.3183 121.503 95.6326C122.189 94.3235 123.436 93.9495 124.745 94.6352C126.054 95.3209 126.677 96.5677 125.991 97.8144C125.243 99.1858 123.872 98.9365 123.062 98.5624C122.874 98.5001 122.812 98.3754 122.687 98.3754L124.246 95.3209ZM123.623 97.8767C124.121 98.1261 124.994 98.3131 125.43 97.4404C125.867 96.63 125.306 95.9443 124.807 95.5703L123.623 97.8767Z" fill="#192632"/>
<path d="M122.625 103.425L122.001 103.051L122.812 101.742L119.321 99.5598L119.757 98.8118L123.248 100.994L124.058 99.6845L124.682 100.059L122.625 103.425Z" fill="#192632"/>
<path d="M121.565 104.921L120.256 103.986C120.194 104.173 120.007 104.422 119.82 104.672C119.196 105.544 118.261 106.292 117.202 105.544C116.765 105.233 116.641 104.859 116.578 104.485C116.516 103.799 116.952 103.051 117.326 102.428C117.638 102.054 117.887 101.68 118.137 101.43L122.064 104.235L121.565 104.921ZM118.137 102.49C118.012 102.615 117.887 102.739 117.7 102.989C117.326 103.55 117.015 104.36 117.638 104.796C118.324 105.295 118.947 104.672 119.383 104.173C119.508 103.986 119.633 103.799 119.695 103.612L118.137 102.49Z" fill="#192632"/>
<path d="M117.513 110.157C117.326 110.469 116.952 110.968 116.578 111.342C116.017 111.965 115.02 112.838 114.272 112.152C113.835 111.778 113.835 111.155 114.147 110.656C113.586 111.092 112.963 111.217 112.464 110.781C111.529 109.908 112.464 108.661 113.087 107.913C113.461 107.539 113.835 107.103 114.022 106.916L117.513 110.157ZM113.835 107.913C113.648 108.1 113.524 108.225 113.337 108.412C112.963 108.848 112.464 109.596 112.963 110.033C113.461 110.531 114.085 110.095 114.646 109.472L115.082 108.973L113.835 107.913ZM115.518 109.409L115.082 109.908C114.646 110.407 114.334 111.03 114.77 111.404C115.144 111.716 115.581 111.591 116.142 110.905C116.329 110.718 116.454 110.531 116.578 110.344L115.518 109.409Z" fill="#192632"/>
<path d="M113.399 114.583L112.028 113.087C111.529 112.526 111.155 112.152 110.719 111.653C110.906 112.277 111.03 112.651 111.155 113.274L111.778 116.142L111.03 116.827L107.727 113.337L108.35 112.776L109.721 114.272C110.282 114.833 110.532 115.144 111.03 115.768C110.843 115.082 110.719 114.708 110.594 114.147C110.407 113.274 110.158 112.277 109.971 111.279L110.719 110.594L114.023 114.085L113.399 114.583Z" fill="#192632"/>
<path d="M106.792 120.256L104.236 117.014L103.862 117.326L102.553 115.581L103.114 115.144L104.111 116.329L106.729 114.271L105.794 113.025L106.355 112.588L107.727 114.271L107.415 114.521C107.415 114.895 107.54 115.269 107.664 115.581C107.914 116.142 108.225 116.703 108.662 117.264L109.41 118.261L106.792 120.256ZM107.789 117.638C107.415 117.139 107.103 116.578 106.854 116.079C106.729 115.768 106.667 115.456 106.605 115.144L104.859 116.516L107.041 119.258L108.288 118.261L107.789 117.638Z" fill="#192632"/>
<path d="M103.488 119.446C102.802 118.448 101.929 118.448 101.181 118.947C100.682 119.321 100.433 119.57 100.184 119.882L99.6851 119.446C99.8721 119.134 100.246 118.76 100.869 118.324C102.116 117.513 103.363 117.825 104.173 119.009C104.984 120.194 104.921 121.627 103.737 122.438C102.428 123.311 101.306 122.375 100.807 121.627C100.682 121.503 100.62 121.378 100.62 121.253L103.488 119.446ZM101.68 121.378C101.992 121.877 102.677 122.438 103.488 121.877C104.236 121.378 104.111 120.505 103.799 119.944L101.68 121.378Z" fill="#192632"/>
<path d="M95.9448 124.183C95.0721 122.625 95.8201 121.316 96.8175 120.755C97.9396 120.131 99.311 120.505 100.059 121.814C100.807 123.248 100.371 124.557 99.1863 125.243C97.9396 125.929 96.6305 125.492 95.9448 124.183ZM99.2487 122.313C98.75 121.378 97.8149 121.004 97.0669 121.378C96.3188 121.752 96.1318 122.749 96.6928 123.747C97.0669 124.432 97.9396 125.181 98.8746 124.682C99.7474 124.183 99.685 123.123 99.2487 122.313Z" fill="#192632"/>
<path d="M62.2201 128.422C62.5317 128.298 63.2174 128.173 64.0278 128.173C65.8979 128.235 67.2694 129.544 67.207 131.726C67.0823 133.846 65.6486 135.217 63.5291 135.092C62.7187 135.03 62.1577 134.843 61.9707 134.718L62.2201 134.033C62.5317 134.22 63.0304 134.344 63.5915 134.344C65.1499 134.407 66.272 133.472 66.3343 131.664C66.3966 130.043 65.5239 128.921 63.9031 128.859C63.4045 128.859 62.8434 128.921 62.4694 129.046L62.2201 128.422Z" fill="#192632"/>
<path d="M60.5994 132.91L59.5397 132.785L59.041 130.23C58.9787 129.856 58.854 129.232 58.7917 128.858C58.6046 129.17 58.2306 129.918 57.9813 130.417L56.9215 132.411L55.8618 132.287L56.2358 127.487L57.0462 127.611L56.7969 129.918C56.7345 130.417 56.7345 131.04 56.6099 131.663C56.7969 131.227 56.9839 130.853 57.3579 130.167L58.6046 127.861L59.228 127.923L59.7267 130.417C59.7891 130.915 59.9137 131.601 59.9761 132.1H60.0384C60.1631 131.539 60.2877 130.915 60.3501 130.417L60.7864 128.173L61.5968 128.297L60.5994 132.91Z" fill="#192632"/>
<path d="M50.3766 128.484C50.8129 126.739 52.1843 126.303 53.3064 126.552C54.5531 126.864 55.3012 128.048 54.9895 129.482C54.6155 131.04 53.3687 131.726 52.0597 131.414C50.6882 131.165 50.0025 129.918 50.3766 128.484ZM54.0544 129.357C54.3038 128.36 53.9298 127.425 53.057 127.238C52.2467 127.051 51.4363 127.674 51.1869 128.734C50.9999 129.544 51.1246 130.604 52.1843 130.853C53.1817 131.103 53.8674 130.23 54.0544 129.357Z" fill="#192632"/>
<path d="M45.4517 129.419L45.6387 128.734L47.0724 129.17L48.3192 125.243L49.1295 125.492L47.8828 129.419L49.3166 129.856L49.1295 130.542L45.4517 129.419Z" fill="#192632"/>
<path d="M45.1398 127.612C44.8904 128.173 44.7034 128.671 44.5787 129.108L43.8307 128.796L44.08 127.986C43.519 128.422 42.8956 128.484 42.1476 128.173C41.0879 127.736 40.6515 126.489 41.2125 125.118C41.8982 123.497 43.2073 123.123 44.2047 123.56C44.7658 123.809 45.2021 124.245 45.2644 124.806L46.2618 122.375L47.0722 122.687L45.1398 127.612ZM44.8281 126.115C44.8904 125.991 44.8904 125.866 44.9528 125.741C45.0151 125.118 44.7034 124.557 44.1424 124.308C43.2697 123.934 42.5216 124.432 42.0853 125.492C41.7112 126.365 41.8982 127.362 42.7086 127.674C43.2697 127.923 43.9554 127.736 44.3294 127.175C44.3917 127.113 44.4541 126.988 44.5164 126.864L44.8281 126.115Z" fill="#192632"/>
<path d="M39.7787 124.245C40.2774 123.186 39.841 122.375 39.093 122.001C38.5319 121.69 38.1579 121.627 37.7839 121.627L37.9086 121.004C38.2203 121.004 38.7813 121.129 39.467 121.503C40.7761 122.188 41.1501 123.435 40.4644 124.744C39.7787 126.053 38.5319 126.677 37.2852 125.991C35.9138 125.243 36.1631 123.871 36.5372 123.061C36.5995 122.874 36.7242 122.812 36.7242 122.687L39.7787 124.245ZM37.2229 123.622C36.9735 124.121 36.7865 124.993 37.6592 125.43C38.4696 125.866 39.1553 125.305 39.5293 124.806L37.2229 123.622Z" fill="#192632"/>
<path d="M31.6748 122.562L32.0488 121.939L33.3579 122.749L35.5397 119.258L36.2877 119.695L34.1059 123.186L35.415 123.996L35.041 124.619L31.6748 122.562Z" fill="#192632"/>
<path d="M30.1787 121.565L31.1138 120.256C30.9267 120.194 30.6774 120.007 30.428 119.82C29.5553 119.196 28.8073 118.261 29.5553 117.201C29.867 116.765 30.241 116.64 30.6151 116.578C31.3008 116.516 32.0488 116.952 32.6722 117.326C33.0462 117.638 33.4202 117.887 33.6696 118.136L30.8644 122.064L30.1787 121.565ZM32.6098 118.074C32.4852 117.949 32.3605 117.825 32.1111 117.638C31.5501 117.264 30.7397 116.952 30.3034 117.575C29.8047 118.261 30.428 118.884 30.9267 119.321C31.1138 119.446 31.3008 119.57 31.4878 119.633L32.6098 118.074Z" fill="#192632"/>
<path d="M25.0051 117.513C24.6934 117.326 24.1947 116.952 23.8207 116.578C23.1974 116.017 22.3246 115.02 23.0103 114.272C23.3844 113.835 24.0077 113.835 24.5064 114.147C24.0701 113.586 23.9454 112.963 24.3818 112.464C25.2545 111.529 26.5012 112.464 27.2493 113.087C27.6233 113.461 28.0596 113.835 28.2467 114.022L25.0051 117.513ZM25.6908 115.456L25.1921 115.02C24.6934 114.583 24.0701 114.272 23.6961 114.708C23.3844 115.082 23.509 115.518 24.1947 116.079C24.3818 116.267 24.5688 116.391 24.7558 116.516L25.6908 115.456ZM27.1869 113.835C26.9999 113.648 26.8752 113.524 26.6882 113.337C26.2519 112.963 25.5038 112.464 25.0675 112.963C24.5688 113.461 25.0051 114.085 25.6285 114.646L26.1272 115.082L27.1869 113.835Z" fill="#192632"/>
<path d="M20.5166 113.399L22.0127 112.027C22.5737 111.529 22.9477 111.155 23.4464 110.718C22.8231 110.905 22.449 111.03 21.8257 111.155L18.9582 111.778L18.2725 111.03L21.7633 107.726L22.3244 108.349L20.8283 109.721C20.2672 110.282 19.9556 110.531 19.3322 111.03C20.0179 110.843 20.3919 110.718 20.953 110.594C21.8257 110.407 22.8231 110.157 23.8205 109.97L24.5062 110.718L21.0153 114.022L20.5166 113.399Z" fill="#192632"/>
<path d="M14.8442 106.729L18.0858 104.173L17.7741 103.799L19.5195 102.49L19.9559 103.051L18.7715 104.048L20.8286 106.667L22.0753 105.732L22.5117 106.293L20.8286 107.664L20.5792 107.352C20.2052 107.352 19.8312 107.477 19.5195 107.602C18.9585 107.851 18.3974 108.163 17.8364 108.599L16.839 109.347L14.8442 106.729ZM17.5247 107.726C18.0234 107.352 18.5845 107.041 19.0832 106.791C19.3948 106.667 19.7065 106.604 20.0182 106.542L18.6468 104.796L15.904 106.978L16.9014 108.225L17.5247 107.726Z" fill="#192632"/>
<path d="M15.6541 103.487C16.6515 102.802 16.6515 101.929 16.1528 101.181C15.7788 100.682 15.5294 100.433 15.2177 100.184L15.6541 99.6848C15.9658 99.8718 16.3398 100.246 16.7762 100.869C17.5865 102.116 17.2749 103.363 16.0904 104.173C14.906 104.983 13.4723 104.921 12.6619 103.737C11.7892 102.428 12.7242 101.306 13.4723 100.807C13.597 100.682 13.7216 100.62 13.8463 100.62L15.6541 103.487ZM13.7216 101.68C13.2229 101.991 12.6619 102.677 13.2229 103.487C13.7216 104.235 14.5944 104.111 15.1554 103.799L13.7216 101.68Z" fill="#192632"/>
<path d="M10.9172 95.8823C12.4756 95.0096 13.7847 95.7576 14.3457 96.755C14.9691 97.8771 14.595 99.2485 13.286 99.9965C11.8522 100.745 10.5431 100.308 9.85743 99.1238C9.17172 97.9394 9.60808 96.6303 10.9172 95.8823ZM12.7873 99.2485C13.7223 98.7498 14.0963 97.8147 13.7223 97.0667C13.3483 96.3187 12.3509 96.1316 11.3535 96.6927C10.6678 97.0667 9.91977 97.9394 10.4185 98.8745C10.9795 99.7472 11.9769 99.6849 12.7873 99.2485Z" fill="#192632"/>
<path d="M6.67791 62.1578C6.80258 62.4695 6.92726 63.1552 6.92726 63.9656C6.86492 65.8357 5.55584 67.2071 3.37405 67.1448C1.25459 67.0201 -0.116827 65.5863 0.0078471 63.4669C0.0701841 62.6565 0.257195 62.0955 0.381869 61.9084L1.06758 62.1578C0.880565 62.4695 0.755891 62.9682 0.755891 63.5292C0.693554 65.0876 1.62861 66.2097 3.43638 66.272C5.05715 66.3344 6.17921 65.4617 6.24155 63.8409C6.24155 63.3422 6.17921 62.7812 6.05454 62.4071L6.67791 62.1578Z" fill="#192632"/>
<path d="M2.25195 60.5369L2.37663 59.4772L4.93245 58.9785C5.30647 58.9162 5.92984 58.7915 6.30386 58.7292C5.92984 58.5421 5.24413 58.1681 4.74543 57.9188L2.75065 56.859L2.87532 55.7993L7.67527 56.1733L7.5506 56.9837L5.24413 56.7344C4.74543 56.672 4.12206 56.672 3.49869 56.5474C3.99739 56.7967 4.37141 56.9837 5.05712 57.2954L7.36359 58.5421L7.30125 59.1655L4.80777 59.6642C4.30907 59.7889 3.56103 59.9136 3.12467 59.9759V60.0382C3.6857 60.1629 4.30907 60.2876 4.80777 60.3499L7.0519 60.7863L6.92723 61.5967L2.25195 60.5369Z" fill="#192632"/>
<path d="M6.61519 50.3138C8.36063 50.7502 8.79699 52.1216 8.54764 53.2436C8.23595 54.4904 7.05155 55.2384 5.6178 54.9267C4.05937 54.5527 3.37367 53.306 3.68535 51.9969C3.99704 50.6255 5.18144 49.9398 6.61519 50.3138ZM5.74247 54.054C6.73986 54.3034 7.67492 53.9294 7.86193 53.0566C8.04894 52.2463 7.42557 51.4359 6.36584 51.1865C5.55546 50.9995 4.49573 51.1242 4.24638 52.1839C4.05937 53.1813 4.86975 53.8047 5.74247 54.054Z" fill="#192632"/>
<path d="M5.68001 45.4517L6.36572 45.6387L5.92936 47.0724L9.85659 48.3192L9.5449 49.1919L5.61767 47.9451L5.18131 49.3789L4.49561 49.1919L5.68001 45.4517Z" fill="#192632"/>
<path d="M7.48828 45.0778C6.92724 44.8284 6.42855 44.6414 5.99219 44.5167L6.30387 43.7687L7.11425 44.018C6.67789 43.457 6.61556 42.8336 6.92724 42.0856C7.3636 41.0259 8.61034 40.5895 9.98176 41.1505C11.6025 41.8362 11.9765 43.1453 11.5402 44.1427C11.2908 44.7037 10.8545 45.1401 10.2934 45.2024L12.7246 46.1998L12.4129 47.0102L7.48828 45.0778ZM8.98436 44.7661C9.10904 44.8284 9.23371 44.8284 9.35839 44.8908C9.98176 44.9531 10.5428 44.6414 10.7921 44.0804C11.1662 43.2077 10.6675 42.4596 9.60773 42.0232C8.73502 41.6492 7.73762 41.8362 7.42594 42.6466C7.17659 43.2077 7.3636 43.8934 7.92463 44.2674C7.98697 44.3297 8.11165 44.3921 8.23632 44.4544L8.98436 44.7661Z" fill="#192632"/>
<path d="M10.9174 39.7789C11.9771 40.2776 12.7875 39.8413 13.1615 39.0932C13.4732 38.5322 13.5355 38.1582 13.5355 37.7841L14.1589 37.9088C14.1589 38.2205 14.0342 38.7815 13.6602 39.4672C12.9745 40.7763 11.7277 41.1503 10.4187 40.4646C9.10959 39.7789 8.48621 38.5322 9.17192 37.2854C9.91997 35.914 11.2914 36.1634 12.1018 36.5374C12.2888 36.5997 12.3511 36.7244 12.4758 36.7244L10.9174 39.7789ZM11.5407 37.1608C11.042 36.9114 10.1693 36.7244 9.73295 37.5971C9.2966 38.4075 9.85763 39.0932 10.3563 39.4672L11.5407 37.1608Z" fill="#192632"/>
<path d="M12.5376 31.675L13.161 32.0491L12.3506 33.3581L15.8415 35.5399L15.4051 36.288L11.9142 34.1062L11.1038 35.4153L10.4805 35.0412L12.5376 31.675Z" fill="#192632"/>
<path d="M13.5973 30.1164L14.9064 31.0515C14.9687 30.8645 15.1558 30.6151 15.3428 30.3658C15.9661 29.4931 16.9012 28.745 17.9609 29.4931C18.3973 29.8048 18.522 30.1788 18.5843 30.5528C18.6466 31.2385 18.2103 31.9866 17.8362 32.6099C17.5246 32.9839 17.2752 33.358 17.0259 33.6073L13.0986 30.8645L13.5973 30.1164ZM17.0259 32.6099C17.1505 32.4853 17.2752 32.3606 17.4622 32.1112C17.8362 31.5502 18.1479 30.7398 17.5246 30.3035C16.8389 29.8048 16.2155 30.4281 15.7791 30.9268C15.6544 31.1138 15.5298 31.3008 15.4674 31.4879L17.0259 32.6099Z" fill="#192632"/>
<path d="M17.6494 24.9426C17.8364 24.6309 18.2104 24.1322 18.5845 23.7582C19.1455 23.1349 20.1429 22.2621 20.8909 22.9478C21.3273 23.3219 21.3273 23.9452 21.0156 24.4439C21.5766 24.0076 22.2 23.8829 22.6987 24.3193C23.6338 25.192 22.6987 26.4387 22.0753 27.1868C21.7013 27.5608 21.3273 27.9971 21.1403 28.1842L17.6494 24.9426ZM19.6442 25.6283L20.0806 25.1296C20.5169 24.6309 20.8286 24.0076 20.3922 23.6336C20.0182 23.3219 19.5819 23.4465 19.0208 24.1322C18.8338 24.3193 18.7091 24.5063 18.5845 24.6933L19.6442 25.6283ZM21.3273 27.1244C21.5143 26.9374 21.639 26.8127 21.826 26.6257C22.2 26.1894 22.6987 25.4413 22.2 25.005C21.7013 24.5063 21.078 24.9426 20.5169 25.566L20.0806 26.0647L21.3273 27.1244Z" fill="#192632"/>
<path d="M21.7635 20.5168L23.1349 22.0129C23.6336 22.574 24.0076 22.948 24.444 23.4467C24.257 22.8233 24.1323 22.4493 24.0076 21.8259L23.3843 18.9584L24.1323 18.2727L27.4362 21.7636L26.8128 22.3246L25.4414 20.8285C24.8804 20.2675 24.631 19.9558 24.1323 19.3324C24.3193 20.0181 24.444 20.3922 24.5687 20.9532C24.7557 21.8259 25.005 22.8233 25.192 23.8207L24.444 24.5064L21.1401 21.0155L21.7635 20.5168Z" fill="#192632"/>
<path d="M28.3714 14.844L30.9272 18.0855L31.3013 17.7738L32.6103 19.5193L32.0493 19.9556L31.1766 18.7712L28.5584 20.8283L29.4935 22.0751L28.9324 22.5114L27.561 20.8283L27.8727 20.579C27.8727 20.205 27.748 19.831 27.6234 19.5193C27.374 18.9582 27.0623 18.3972 26.626 17.8362L25.8779 16.8388L28.3714 14.844ZM27.374 17.4621C27.748 17.9608 28.0597 18.5219 28.3091 19.0206C28.4337 19.3323 28.4961 19.6439 28.5584 19.9556L30.3039 18.5842L28.1221 15.8414L26.8753 16.8388L27.374 17.4621Z" fill="#192632"/>
<path d="M31.6751 15.6543C32.3608 16.6517 33.2335 16.6517 33.9815 16.153C34.4802 15.779 34.7296 15.5297 34.9789 15.218L35.4776 15.6543C35.2906 15.966 34.9166 16.34 34.2932 16.7764C33.0465 17.5868 31.7997 17.2751 30.9894 16.0907C30.179 14.9063 30.2413 13.4725 31.4257 12.6622C32.7348 11.7894 33.8569 12.7245 34.3556 13.4725C34.4802 13.5972 34.5426 13.7219 34.5426 13.8466L31.6751 15.6543ZM33.4828 13.7219C33.1712 13.2232 32.4855 12.6622 31.6751 13.2232C30.927 13.7219 31.0517 14.5946 31.3634 15.1556L33.4828 13.7219Z" fill="#192632"/>
<path d="M39.2181 10.9169C40.0908 12.4753 39.3427 13.7844 38.3453 14.3455C37.2233 14.9688 35.8519 14.5948 35.1038 13.2857C34.3558 11.852 34.7921 10.5429 35.9765 9.85719C37.2233 9.17148 38.5324 9.60784 39.2181 10.9169ZM35.9142 12.787C36.4129 13.7221 37.3479 14.0961 38.096 13.7221C38.844 13.3481 39.031 12.3507 38.47 11.3533C38.096 10.6676 37.2233 9.91952 36.2882 10.4182C35.3532 10.9169 35.4155 11.9766 35.9142 12.787Z" fill="#192632"/>
<path d="M6.67791 62.1578C6.80258 62.4695 6.92726 63.1552 6.92726 63.9656C6.86492 65.8357 5.55584 67.2071 3.37405 67.1448C1.25459 67.0201 -0.116827 65.5863 0.0078471 63.4669C0.0701841 62.6565 0.257195 62.0955 0.381869 61.9084L1.06758 62.1578C0.880565 62.4695 0.755891 62.9682 0.755891 63.5292C0.693554 65.0876 1.62861 66.2097 3.43638 66.272C5.05715 66.3344 6.17921 65.4617 6.24155 63.8409C6.24155 63.3422 6.17921 62.7812 6.05454 62.4071L6.67791 62.1578Z" fill="#192632"/>
<path d="M2.25195 60.5369L2.37663 59.4772L4.93245 58.9785C5.30647 58.9162 5.92984 58.7915 6.30386 58.7292C5.92984 58.5421 5.24413 58.1681 4.74543 57.9188L2.75065 56.859L2.87532 55.7993L7.67527 56.1733L7.5506 56.9837L5.24413 56.7344C4.74543 56.672 4.12206 56.672 3.49869 56.5474C3.99739 56.7967 4.37141 56.9837 5.05712 57.2954L7.36359 58.5421L7.30125 59.1655L4.80777 59.6642C4.30907 59.7889 3.56103 59.9136 3.12467 59.9759V60.0382C3.6857 60.1629 4.30907 60.2876 4.80777 60.3499L7.0519 60.7863L6.92723 61.5967L2.25195 60.5369Z" fill="#192632"/>
<path d="M6.61519 50.3138C8.36063 50.7502 8.79699 52.1216 8.54764 53.2436C8.23595 54.4904 7.05155 55.2384 5.6178 54.9267C4.05937 54.5527 3.37367 53.306 3.68535 51.9969C3.99704 50.6255 5.18144 49.9398 6.61519 50.3138ZM5.74247 54.054C6.73986 54.3034 7.67492 53.9294 7.86193 53.0566C8.04894 52.2463 7.42557 51.4359 6.36584 51.1865C5.55546 50.9995 4.49573 51.1242 4.24638 52.1839C4.05937 53.1813 4.86975 53.8047 5.74247 54.054Z" fill="#192632"/>
<path d="M5.68001 45.4517L6.36572 45.6387L5.92936 47.0724L9.85659 48.3192L9.5449 49.1919L5.61767 47.9451L5.18131 49.3789L4.49561 49.1919L5.68001 45.4517Z" fill="#192632"/>
<path d="M7.48828 45.0778C6.92724 44.8284 6.42855 44.6414 5.99219 44.5167L6.30387 43.7687L7.11425 44.018C6.67789 43.457 6.61556 42.8336 6.92724 42.0856C7.3636 41.0259 8.61034 40.5895 9.98176 41.1505C11.6025 41.8362 11.9765 43.1453 11.5402 44.1427C11.2908 44.7037 10.8545 45.1401 10.2934 45.2024L12.7246 46.1998L12.4129 47.0102L7.48828 45.0778ZM8.98436 44.7661C9.10904 44.8284 9.23371 44.8284 9.35839 44.8908C9.98176 44.9531 10.5428 44.6414 10.7921 44.0804C11.1662 43.2077 10.6675 42.4596 9.60773 42.0232C8.73502 41.6492 7.73762 41.8362 7.42594 42.6466C7.17659 43.2077 7.3636 43.8934 7.92463 44.2674C7.98697 44.3297 8.11165 44.3921 8.23632 44.4544L8.98436 44.7661Z" fill="#192632"/>
<path d="M10.9174 39.7789C11.9771 40.2776 12.7875 39.8413 13.1615 39.0932C13.4732 38.5322 13.5355 38.1582 13.5355 37.7841L14.1589 37.9088C14.1589 38.2205 14.0342 38.7815 13.6602 39.4672C12.9745 40.7763 11.7277 41.1503 10.4187 40.4646C9.10959 39.7789 8.48621 38.5322 9.17192 37.2854C9.91997 35.914 11.2914 36.1634 12.1018 36.5374C12.2888 36.5997 12.3511 36.7244 12.4758 36.7244L10.9174 39.7789ZM11.5407 37.1608C11.042 36.9114 10.1693 36.7244 9.73295 37.5971C9.2966 38.4075 9.85763 39.0932 10.3563 39.4672L11.5407 37.1608Z" fill="#192632"/>
<path d="M12.5376 31.675L13.161 32.0491L12.3506 33.3581L15.8415 35.5399L15.4051 36.288L11.9142 34.1062L11.1038 35.4153L10.4805 35.0412L12.5376 31.675Z" fill="#192632"/>
<path d="M13.5973 30.1164L14.9064 31.0515C14.9687 30.8645 15.1558 30.6151 15.3428 30.3658C15.9661 29.4931 16.9012 28.745 17.9609 29.4931C18.3973 29.8048 18.522 30.1788 18.5843 30.5528C18.6466 31.2385 18.2103 31.9866 17.8362 32.6099C17.5246 32.9839 17.2752 33.358 17.0259 33.6073L13.0986 30.8645L13.5973 30.1164ZM17.0259 32.6099C17.1505 32.4853 17.2752 32.3606 17.4622 32.1112C17.8362 31.5502 18.1479 30.7398 17.5246 30.3035C16.8389 29.8048 16.2155 30.4281 15.7791 30.9268C15.6544 31.1138 15.5298 31.3008 15.4674 31.4879L17.0259 32.6099Z" fill="#192632"/>
<path d="M17.6494 24.9426C17.8364 24.6309 18.2104 24.1322 18.5845 23.7582C19.1455 23.1349 20.1429 22.2621 20.8909 22.9478C21.3273 23.3219 21.3273 23.9452 21.0156 24.4439C21.5766 24.0076 22.2 23.8829 22.6987 24.3193C23.6338 25.192 22.6987 26.4387 22.0753 27.1868C21.7013 27.5608 21.3273 27.9971 21.1403 28.1842L17.6494 24.9426ZM19.6442 25.6283L20.0806 25.1296C20.5169 24.6309 20.8286 24.0076 20.3922 23.6336C20.0182 23.3219 19.5819 23.4465 19.0208 24.1322C18.8338 24.3193 18.7091 24.5063 18.5845 24.6933L19.6442 25.6283ZM21.3273 27.1244C21.5143 26.9374 21.639 26.8127 21.826 26.6257C22.2 26.1894 22.6987 25.4413 22.2 25.005C21.7013 24.5063 21.078 24.9426 20.5169 25.566L20.0806 26.0647L21.3273 27.1244Z" fill="#192632"/>
<path d="M21.7635 20.5168L23.1349 22.0129C23.6336 22.574 24.0076 22.948 24.444 23.4467C24.257 22.8233 24.1323 22.4493 24.0076 21.8259L23.3843 18.9584L24.1323 18.2727L27.4362 21.7636L26.8128 22.3246L25.4414 20.8285C24.8804 20.2675 24.631 19.9558 24.1323 19.3324C24.3193 20.0181 24.444 20.3922 24.5687 20.9532C24.7557 21.8259 25.005 22.8233 25.192 23.8207L24.444 24.5064L21.1401 21.0155L21.7635 20.5168Z" fill="#192632"/>
<path d="M28.3714 14.844L30.9272 18.0855L31.3013 17.7738L32.6103 19.5193L32.0493 19.9556L31.1766 18.7712L28.5584 20.8283L29.4935 22.0751L28.9324 22.5114L27.561 20.8283L27.8727 20.579C27.8727 20.205 27.748 19.831 27.6234 19.5193C27.374 18.9582 27.0623 18.3972 26.626 17.8362L25.8779 16.8388L28.3714 14.844ZM27.374 17.4621C27.748 17.9608 28.0597 18.5219 28.3091 19.0206C28.4337 19.3323 28.4961 19.6439 28.5584 19.9556L30.3039 18.5842L28.1221 15.8414L26.8753 16.8388L27.374 17.4621Z" fill="#192632"/>
<path d="M31.6751 15.6543C32.3608 16.6517 33.2335 16.6517 33.9815 16.153C34.4802 15.779 34.7296 15.5297 34.9789 15.218L35.4776 15.6543C35.2906 15.966 34.9166 16.34 34.2932 16.7764C33.0465 17.5868 31.7997 17.2751 30.9894 16.0907C30.179 14.9063 30.2413 13.4725 31.4257 12.6622C32.7348 11.7894 33.8569 12.7245 34.3556 13.4725C34.4802 13.5972 34.5426 13.7219 34.5426 13.8466L31.6751 15.6543ZM33.4828 13.7219C33.1712 13.2232 32.4855 12.6622 31.6751 13.2232C30.927 13.7219 31.0517 14.5946 31.3634 15.1556L33.4828 13.7219Z" fill="#192632"/>
<path d="M39.2181 10.9169C40.0908 12.4753 39.3427 13.7844 38.3453 14.3455C37.2233 14.9688 35.8519 14.5948 35.1038 13.2857C34.3558 11.852 34.7921 10.5429 35.9765 9.85719C37.2233 9.17148 38.5324 9.60784 39.2181 10.9169ZM35.9142 12.787C36.4129 13.7221 37.3479 14.0961 38.096 13.7221C38.844 13.3481 39.031 12.3507 38.47 11.3533C38.096 10.6676 37.2233 9.91952 36.2882 10.4182C35.3532 10.9169 35.4155 11.9766 35.9142 12.787Z" fill="#192632"/>
</svg>
